# xmcd
#
# Track frame offsets: 
#        150
#        19555
#        36127
#        47720
#        62925
#        90040
#        101677
#        117615
#        133457
#        158755
#        178585
#        196732
#        221540
#        239330
#
# Disc length: 3367 seconds
#
# Revision: 2
# Processed by: cddbd v1.5.2PL0 Copyright (c) Steve Scherf et al.
# Submitted via: ExactAudioCopy v1.0b1
#
DISCID=bd0d250e
DTITLE=Various Artist - Blues Busters Volume 2 - Black Top Sampler
DYEAR=1994
DGENRE=Blues
TTITLE0=Guitar Shorty with Carol Fran - I'm So Glad I Met You
TTITLE1=Joe "Guitar" Hughes - Mother In Law Blues
TTITLE2=Alex Schultz - Jam Up
TTITLE3=Snooks Eaglin - Traveling Mood
TTITLE4=Ronnie Earl - Baby Doll Blues
TTITLE5=James Harman Band - Wake Up Call
TTITLE6=Darrell Nulisch and Texas Heat - Love And War
TTITLE7=Anson Funderburgh and Sam Myers - My Love Is Here To Stay
TTITLE8=Rod Piazza and Mighty Flyers - 4811 Wadsworth
TTITLE9=Robert Ward - White Fox
TTITLE10=Mike Morgan and The Crawl - The Blues Have Come My Way
TTITLE11=Solomon Burke - Good Rockin' Tonight
TTITLE12=Lynn August - Marcked Deck
TTITLE13=Carol Fran and Clarence Holliman - Golden Girl
EXTD=
EXTT0=
EXTT1=
EXTT2=
EXTT3=
EXTT4=
EXTT5=
EXTT6=
EXTT7=
EXTT8=
EXTT9=
EXTT10=
EXTT11=
EXTT12=
EXTT13=
PLAYORDER=
